<?xml version="1.0" encoding="UTF-8" standalone="no"?>
<svg
   xmlns:dc="http://purl.org/dc/elements/1.1/"
   xmlns:cc="http://creativecommons.org/ns#"
   xmlns:rdf="http://www.w3.org/1999/02/22-rdf-syntax-ns#"
   xmlns:svg="http://www.w3.org/2000/svg"
   xmlns="http://www.w3.org/2000/svg"
   xmlns:sodipodi="http://sodipodi.sourceforge.net/DTD/sodipodi-0.dtd"
   xmlns:inkscape="http://www.inkscape.org/namespaces/inkscape"
   sodipodi:docname="favicon.svg"
   inkscape:version="1.0 (4035a4f, 2020-05-01)"
   id="svg8"
   version="1.1"
   viewBox="0 0 33.866666 33.866666"
   height="128"
   width="128">
  <defs
     id="defs2" />
  <sodipodi:namedview
     inkscape:window-maximized="0"
     inkscape:window-y="25"
     inkscape:window-x="0"
     inkscape:window-height="901"
     inkscape:window-width="1252"
     units="px"
     showgrid="false"
     inkscape:document-rotation="0"
     inkscape:current-layer="layer1"
     inkscape:document-units="mm"
     inkscape:cy="93.441365"
     inkscape:cx="70.353805"
     inkscape:zoom="2.7468974"
     inkscape:pageshadow="2"
     inkscape:pageopacity="0.0"
     borderopacity="1.0"
     bordercolor="#666666"
     pagecolor="#ffffff"
     id="base" />
  <metadata
     id="metadata5">
    <rdf:RDF>
      <cc:Work
         rdf:about="">
        <dc:format>image/svg+xml</dc:format>
        <dc:type
           rdf:resource="http://purl.org/dc/dcmitype/StillImage" />
        <dc:title></dc:title>
      </cc:Work>
    </rdf:RDF>
  </metadata>
  <g
     id="layer1"
     inkscape:groupmode="layer"
     inkscape:label="Layer 1">
    <circle
       r="16.904299"
       cy="17.00062"
       cx="17.00062"
       id="path833"
       style="opacity:0.706173;fill:#f9f9f9;stroke-width:0.508695" />
    <path
       d="m 7.9366864,7.4587939 c 0.2324674,0.7509772 0.105409,1.55359 0.031419,2.3191417 -0.1680292,1.3695264 -0.4526826,2.7201484 -0.7723098,4.0608884 -0.2239245,0.858108 -0.486248,1.703857 -0.8658654,2.505712 -0.00717,0.01392 -0.1763042,0.306979 -0.1435401,0.36211 0.2548417,0.428808 0.5004332,0.354911 0.9678802,0.34252 0.341924,-0.0091 0.6821645,-0.052 1.0236399,-0.07181 0.4082941,-0.02369 0.8170194,-0.03913 1.2255296,-0.05869 1.8098442,-0.04936 3.6204732,-0.101988 5.4311652,-0.06068 0.759473,0.01733 1.518255,0.05818 2.277602,0.08035 1.854898,0.03573 3.706678,0.166308 5.540153,0.452937 0.06589,0.03894 0.753085,0.08011 0.794473,0.211004 0.0093,0.02932 -0.04184,0.04851 -0.04804,0.07863 -0.02411,0.117062 -0.0225,0.238194 -0.04155,0.356196 -0.03241,0.200809 -0.07517,0.399793 -0.112757,0.599688 -0.06653,0.260722 -0.137697,0.520294 -0.199601,0.782166 -0.260996,1.104096 -0.492336,2.214754 -0.772598,3.314475 -0.895483,3.513793 0.250216,-1.134163 -0.557445,2.166556 -0.07031,0.323905 -0.150068,0.645884 -0.210936,0.971717 -0.04266,0.228377 -0.249876,1.63483 -0.289833,1.880252 -0.110761,0.680302 -0.23682,1.358714 -0.369494,2.035003 0.86669,1.745235 4.374651,-0.01469 3.507961,-1.759934 v 0 c -0.02942,-0.61266 -0.03534,-1.224784 0.0128,-1.837254 0.06043,-0.768975 0.124284,-1.065076 0.247451,-1.83708 0.04961,-0.310904 0.09914,-0.621819 0.148707,-0.93273 0.09818,-0.550005 0.26779,-1.540055 0.393137,-2.072436 0.34925,-1.483362 0.858098,-2.92096 1.46838,-4.314946 0.09727,-0.239755 0.205545,-0.475287 0.291801,-0.719262 0.117669,-0.332825 0.286587,-0.68946 0.05223,-1.030435 -0.143844,-0.209284 -0.520244,-0.123013 -0.692843,-0.116688 -0.184272,0.0067 -0.368659,0.0098 -0.552989,0.01469 -0.614538,0.0048 -0.952368,0.01147 -1.58604,-0.0024 -1.460266,-0.03192 -2.918161,-0.133201 -4.378486,-0.163486 -0.391224,-0.0039 -0.782443,-0.01492 -1.173671,-0.01158 -0.418235,0.0036 -0.836156,0.02476 -1.254336,0.03238 -0.499011,0.0091 -2.236664,0.02517 -2.727982,0.01884 -0.442577,-0.0057 -0.88491,-0.02401 -1.327286,-0.03858 -0.398781,-0.01312 -0.797445,-0.02965 -1.196167,-0.04447 -0.336819,-0.02958 -0.675095,-0.04557 -1.010458,-0.08875 -0.233776,-0.03009 -0.46401,-0.08363 -0.694976,-0.130797 -0.105006,-0.02144 -0.208359,-0.09956 -0.312679,-0.07497 -0.04815,0.01135 -0.0082,0.09982 -0.0018,0.149118 0.01093,0.08507 0.01733,-0.51607 0.04288,-0.253708 0.171505,-0.810381 0.403725,-1.606047 0.558304,-2.420387 0.218436,-1.340467 0.390825,-2.6887961 0.654382,-4.0216324 0.187591,-0.886907 0.36118,-1.7762382 0.522008,-2.6680201 -0.983112,-1.9393354 -4.8812222,0.05701 -3.8981099,1.9963458 z"
       id="path841"
       style="opacity:1;fill:#000000;fill-opacity:0.906883;stroke-width:0.460921" />
  </g>
</svg>
